<?xml version="1.0" encoding="UTF-8" standalone="no"?><!DOCTYPE svg PUBLIC "-//W3C//DTD SVG 1.1//EN" "http://www.w3.org/Graphics/SVG/1.1/DTD/svg11.dtd"><svg width="100%" height="100%" viewBox="0 0 144 144" version="1.1" xmlns="http://www.w3.org/2000/svg" xmlns:xlink="http://www.w3.org/1999/xlink" xml:space="preserve" xmlns:serif="http://www.serif.com/" style="fill-rule:evenodd;clip-rule:evenodd;stroke-linejoin:round;stroke-miterlimit:2;"><g id="action"><path d="M112.013,122l-79.721,0l-0,-6.512l79.721,-0l-0,6.512Zm-25.696,-16.85c2.321,0.604 4.737,-1.017 5.429,-3.613c0.692,-2.6 -0.654,-5.208 -2.971,-5.791c-2.317,-0.592 -4.738,1 -5.433,3.604c-0.696,2.6 0.65,5.208 2.975,5.792l-0,0.008Zm28.891,-80.333c-7.237,-5.613 -22.446,-1.792 -33.937,2.4c-12.588,4.671 -24.591,10.786 -35.771,18.22c-8.4,5.667 -18.771,14.009 -20.383,21.621c-0.472,1.839 -0.038,3.796 1.166,5.263c2.104,2.458 5.642,2.4 6.317,2.366c1.777,-0.011 3.233,-1.477 3.233,-3.254c-0,-0.936 -0.404,-1.828 -1.108,-2.446c-0.663,-0.584 -1.536,-0.874 -2.417,-0.804c-0.253,0.004 -0.505,-0.018 -0.754,-0.066c2.417,-8.9 27.875,-25.967 51.959,-34.759c16.075,-5.866 24.85,-5.591 27.704,-3.375c1.183,0.917 1.804,2.029 0.958,4.425c-2.271,6.396 -13.333,16.5 -29.617,27c-3.02,1.946 -5.975,3.742 -8.791,5.375c2.266,-8 4.583,-16.166 6.591,-23.171c0.084,-0.291 0.126,-0.592 0.126,-0.895c-0,-1.788 -1.471,-3.259 -3.259,-3.259c-1.451,-0 -2.735,0.968 -3.133,2.363c-2.798,9.787 -5.579,19.578 -8.342,29.375c-6.517,3.379 -11.475,5.417 -13.417,5.691c-0.45,-0.223 -0.947,-0.34 -1.45,-0.34c-1.79,0 -3.263,1.473 -3.263,3.263c0,0.576 0.153,1.142 0.443,1.64c0.558,0.942 1.666,1.983 3.87,1.983c0.367,0 0.738,-0.029 1.1,-0.083c2.25,-0.304 5.905,-1.646 10.355,-3.683c-3.159,11.258 -5.721,20.729 -5.863,22.008c-0.186,1.768 1.109,3.378 2.875,3.575c0.121,0.008 0.242,0.008 0.363,0c1.633,-0.004 3.024,-1.234 3.229,-2.854c0.258,-1.583 3.425,-13.054 7.275,-26.75c5.701,-3.11 11.275,-6.447 16.708,-10.004c22.646,-14.946 29.196,-24.654 30.675,-30.171c1.154,-4.25 -0.071,-8.042 -3.437,-10.654l-0.005,-0Z" style="fill:#fff;fill-rule:nonzero;"/></g></svg>